<?xml version="1.0" encoding="utf-8"?>
<!-- Generator: Adobe Illustrator 19.1.0, SVG Export Plug-In . SVG Version: 6.00 Build 0)  -->
<svg version="1.1" id="Layer_1" xmlns="http://www.w3.org/2000/svg" xmlns:xlink="http://www.w3.org/1999/xlink" x="0px" y="0px"
	 width="147px" height="147px" viewBox="0 0 147 147" enable-background="new 0 0 147 147" xml:space="preserve">
<path fill="#66872B" d="M73.5,5.4C35.9,5.4,5.4,35.9,5.4,73.5c0,37.6,30.6,68.1,68.1,68.1c37.6,0,68.1-30.6,68.1-68.1
	C141.6,35.9,111.1,5.4,73.5,5.4z"/>
<path fill="#D8D5C4" d="M73.5,0C33,0,0,33,0,73.5C0,114,33,147,73.5,147c40.5,0,73.5-33,73.5-73.5C147,33,114,0,73.5,0z M73.5,141.6
	c-37.6,0-68.1-30.6-68.1-68.1c0-37.6,30.6-68.1,68.1-68.1c37.6,0,68.1,30.6,68.1,68.1C141.6,111.1,111.1,141.6,73.5,141.6z"/>
<path d="M57,120.4c-1.6-0.3-3.8-1.3-4.4-1.6c1.3-5.3,8.4-34.6,9.6-40.1l3.3-15.4c0.3-1.5,6.9-31.3,6.9-32.9c0-2.3-3.2-2.3-4.9-2.3
	l0.4-1.5c4.9-0.6,6.5-1.5,9.9-3.5H79c-1.1,3.9-8.1,36-9,39.9l-2.3,10.6l0.1,0.1c2.5-3.2,7.6-9.5,12.8-9.5c3.2,0,5.4,3.1,5.4,6.3
	c0,2.7-0.7,5.3-1.3,7.8l-1.6,6.7c-0.4,1.3-0.8,3.2-0.8,4c0,1.3,1.1,2.4,2.3,2.4c1.1,0,2.7-1.3,3.3-1.8l0.7,1l-3.2,2.7
	c-1.3,1.1-2.8,2.3-4.5,2.3c-2.2,0-3.4-2.5-3.4-4.7c0-2.1,0.6-4.2,1.1-6.3l1.8-7.6c0.3-1.5,0.8-2.9,0.8-4.4c0-2-1.5-3.9-3.5-3.9
	c-4.6,0-10.6,6.8-12.8,16.9L57,120.4z"/>
<g>
	<path fill="#4A681C" d="M73.5,126.9c-25.3,0-47.3-17.9-52.4-42.7l-5.2,1.1c5.6,27.2,29.8,47,57.6,47c12.6,0,24.5-3.9,34.6-11.3
		l-3.2-4.3C95.8,123.4,84.9,126.9,73.5,126.9z"/>
	<path fill="#4A681C" d="M73.5,20.1c11.4,0,22.3,3.5,31.5,10.3l3.2-4.3C98,18.6,86.1,14.7,73.5,14.7c-27.1,0-50.6,18.3-57.1,44.6
		l5.2,1.3C27.5,36.7,48.9,20.1,73.5,20.1z"/>
</g>
<g>
	<path fill="#D8D5C4" d="M111.7,78.9l-0.4-0.4H87.1c0,0.2-0.1,0.4-0.1,0.4l-1.2,5l20.5-0.5c-4.4,13.2-18.2,22.9-32.3,22.9
		c-3.8,0-7.5-0.7-11-1.9l-1.2,5.3c3.8,1.3,7.9,2,12.2,2c8.7,0,17.3-3,24-8.5c6.7-5.4,11.3-13,13.2-21.3L111.7,78.9z"/>
	<path fill="#D8D5C4" d="M41.2,73.5c0-16,11.5-29.4,26.7-32.2c0.5-2.4,0.9-4.3,1.1-5.6c-18.7,2.4-33.2,18.4-33.2,37.8
		c0,13.5,7,25.4,17.7,32.1c0.4-1.7,0.9-3.6,1.4-5.6C46.6,94.1,41.2,84.4,41.2,73.5z"/>
	<path fill="#D8D5C4" d="M98.2,51.5l4-3.6C95.9,41,87.4,36.7,78.4,35.7c-0.4,1.7-0.8,3.4-1.2,5.3C85.2,41.7,92.7,45.5,98.2,51.5z"/>
	<polygon fill="#D8D5C4" points="54.2,83.9 76.6,83.9 77.9,78.5 55.3,78.5 	"/>
	<path fill="#D8D5C4" d="M111.4,36.8l5.2-5.4l-1.1-1.1l-5,5.2l-1.7-1.6l-1.1,1.1l2,1.9C110.3,37.6,110.8,37.4,111.4,36.8z"/>
	<polygon fill="#D8D5C4" points="115.8,44.2 117.2,43.1 115.5,40.8 117,39.7 118.4,41.5 119.7,40.5 118.3,38.7 119.7,37.6 
		121.5,39.9 122.8,38.9 120,35.2 113,40.5 	"/>
	<path fill="#D8D5C4" d="M118.6,48.9l3.2-1.7l0.8,1.4l-3.2,1.7l0.8,1.5l2.8-1.5c0.6-0.3,0.9-0.8,0.6-1.3c0.3,0.5,0.7,0.6,1.3,0.3
		l2.1-1.1c0.6-0.3,0.8-1,0.5-1.6l-1.8-3.4l-7.8,4.1L118.6,48.9z M125,45.5l0.8,1.4l-1.7,0.9l-0.8-1.4L125,45.5z"/>
	<path fill="#D8D5C4" d="M126,53.7c-0.5,0.2-0.8,0.9-0.6,1.5l0.7,2.2l-1.9,0.6l-0.5-1.7l1.3-0.4l-0.5-1.7l-1.8,0.6
		c-0.6,0.2-0.9,0.9-0.7,1.5l0.9,2.6c0.2,0.6,0.9,1,1.5,0.8l1.5-0.5l1.3-0.4c0.6-0.2,0.9-0.8,0.7-1.5l-0.7-2.1l1.9-0.6l0.5,1.6
		l-1.3,0.4l0.5,1.6l1.7-0.6c0.6-0.2,0.9-0.8,0.7-1.5l-0.9-2.7c-0.2-0.6-0.8-1-1.5-0.8l-1.3,0.4L126,53.7z"/>
	<polygon fill="#D8D5C4" points="124.7,68.2 126.5,68 126.1,65.1 127.9,64.8 128.2,67.1 129.9,66.8 129.5,64.6 131.3,64.3 
		131.7,67.2 133.4,66.9 132.8,62.4 124,63.6 	"/>
	<path fill="#D8D5C4" d="M133.6,73.9l0-1.7l-4.1-0.1c-0.7,0-1.2,0.4-1.2,1.1l0,0.6l-3.6-0.1l0,1.6l3.6,0.1l0,0.6
		c0,0.7,0.5,1.1,1.1,1.1l4.1,0.1l0-1.7l-3.4-0.1l0-1.6L133.6,73.9z"/>
	<path fill="#D8D5C4" d="M130.7,88.8l-6.2-2c-0.6-0.2-1.3,0.2-1.5,0.8l-0.8,2.6c-0.2,0.6,0.1,1.3,0.7,1.5l1.9,0.6l0.5-1.7l-1.4-0.4
		l0.5-1.6l5.3,1.7l-0.5,1.6l-1.3-0.4l-0.5,1.7l1.8,0.6c0.6,0.2,1.2-0.1,1.4-0.8l0.8-2.7C131.6,89.6,131.3,89,130.7,88.8z"/>
	<polygon fill="#D8D5C4" points="126.5,98.8 121.3,96.3 121.7,95.3 120.4,94.6 118.7,98.1 120,98.7 120.5,97.8 125.7,100.4 
		125.2,101.3 126.6,102 128.3,98.6 126.9,97.9 	"/>
	<polygon fill="#D8D5C4" points="121.9,106.3 116.1,102.3 115.1,103.7 120.9,107.8 119.8,109.4 121.2,110.3 124.4,105.7 123,104.8 	
		"/>
	<path fill="#D8D5C4" d="M113.6,111l-0.4,0.4l-2.6-2.5l-1.2,1.2l2.6,2.5l-0.4,0.4c-0.5,0.5-0.4,1.1,0,1.6l2.9,2.9l1.2-1.2l-2.4-2.4
		l1.1-1.2l2.4,2.4l1.2-1.2l-2.9-2.9C114.7,110.5,114.1,110.5,113.6,111z"/>
	<polygon fill="#D8D5C4" points="19.9,70.4 17.8,64.5 15.8,70.4 9.5,70.6 14.5,74.4 12.7,80.4 17.8,76.8 23,80.4 21.2,74.4 
		26.2,70.6 	"/>
</g>
<g>
</g>
<g>
</g>
<g>
</g>
<g>
</g>
<g>
</g>
<g>
</g>
</svg>
